<svg width="20" height="23" viewBox="0 0 20 23" fill="none" xmlns="http://www.w3.org/2000/svg">
<path fill-rule="evenodd" clip-rule="evenodd" d="M11.6548 8.20391C12.3593 7.85261 13.2558 7.3355 14.1533 6.62701C14.3425 7.01999 14.3632 7.36291 14.2657 7.63981C14.1966 7.83496 14.0664 8.00469 13.8952 8.13973C13.7099 8.28566 13.4783 8.39191 13.2224 8.44933C12.7367 8.55873 12.1697 8.49486 11.6548 8.20391ZM11.777 11.8033L12.7096 12.3419C10.8054 13.4092 10.2878 15.3909 9.67284 17.321C9.05801 15.3909 8.54028 13.4092 6.6362 12.3419L7.56878 11.8033C7.659 11.7692 7.73611 11.7074 7.78906 11.6268C7.84201 11.5462 7.8681 11.4509 7.86357 11.3545C7.77813 9.54689 8.26622 8.7475 8.92459 8.24559C9.16072 8.0658 9.41851 7.97552 9.67284 7.97552C9.92718 7.97552 10.185 8.0658 10.4212 8.24559C11.0795 8.7475 11.5676 9.54689 11.4822 11.3545C11.4777 11.4509 11.5038 11.5462 11.5567 11.6268C11.6097 11.7074 11.6868 11.7692 11.777 11.8033ZM9.67284 0C10.7508 0.0289416 11.8315 0.238212 12.7694 0.645313C13.4188 0.92759 14.0248 1.30045 14.5736 1.74632C14.8214 1.94761 15.0254 2.14206 15.2502 2.36592C15.8564 2.38688 16.7424 1.71339 17.1537 1.0832C16.4459 3.4039 13.2156 6.14445 10.9793 7.1931C10.9784 7.19272 10.9777 7.19218 10.9771 7.19172C10.5757 6.88526 10.1243 6.73203 9.67284 6.73203C9.22137 6.73203 8.77005 6.88526 8.36871 7.19172C8.36802 7.1921 8.3674 7.19279 8.36648 7.1931C6.13007 6.14445 2.8999 3.4039 2.19202 1.0832C2.60326 1.71339 3.48925 2.38688 4.09548 2.36592C4.32034 2.14214 4.52439 1.94761 4.77212 1.74632C5.32086 1.30045 5.92686 0.92759 6.57632 0.645313C7.51428 0.238212 8.59494 0.0289416 9.67284 0ZM7.69084 8.20391C6.98642 7.85261 6.08992 7.3355 5.1925 6.62701C5.00327 7.01999 4.98254 7.36291 5.07996 7.63981C5.14913 7.83496 5.27933 8.00469 5.45044 8.13973C5.63591 8.28566 5.86745 8.39191 6.12339 8.44933C6.60903 8.55873 7.17596 8.49486 7.69084 8.20391Z" fill="white"/>
<path fill-rule="evenodd" clip-rule="evenodd" d="M15.1361 5.75872C15.6302 5.26011 16.0656 4.70823 16.4156 4.21576L16.5934 4.55039C17.1658 5.69554 17.4632 6.83609 17.4632 8.11965L17.462 10.1565L17.4727 11.2123C17.5142 13.8045 18.0751 16.4271 19.3456 18.8272L16.6873 16.6837L14.8064 19.7359L12.8304 17.8757L9.67279 22.9999L6.51516 17.8758L4.53922 19.736L2.65833 16.6838L0 18.8273C1.27051 16.4272 1.83138 13.8046 1.87291 11.2124L1.88366 10.1565L1.88243 8.11973C1.88243 6.83609 2.17975 5.69554 2.75229 4.55047L2.93001 4.21584C3.28007 4.7083 3.71535 5.26011 4.2095 5.7588L4.0552 6.07931C3.75542 6.70182 3.65616 7.39788 3.88969 8.05985C4.04023 8.48622 4.31498 8.85186 4.66919 9.13099C5.01311 9.40206 5.42014 9.58477 5.84628 9.68073C6.12387 9.74322 6.40669 9.76894 6.68766 9.76019C6.6221 10.1318 6.59346 10.5173 6.59162 10.91L4.08407 12.3583L6.01908 13.443C6.17374 13.5297 6.32097 13.629 6.45927 13.74C8.05459 15.1723 9.01373 19.4097 9.67286 21.4795C10.3321 19.4097 11.2911 15.1723 12.8865 13.74C13.0248 13.629 13.172 13.5297 13.3267 13.443L15.2617 12.3583L12.7541 10.91C12.7523 10.5173 12.7236 10.1318 12.6581 9.76019C12.939 9.76894 13.2219 9.74322 13.4994 9.68073C13.9256 9.58477 14.3327 9.40206 14.6765 9.13099C15.0307 8.85186 15.3055 8.48622 15.456 8.05985C15.6896 7.39788 15.5902 6.7019 15.2905 6.07931L15.1362 5.7588L15.1361 5.75872Z" fill="white"/>
</svg>
