<svg width="24" height="24" viewBox="0 0 24 24" fill="none" xmlns="http://www.w3.org/2000/svg">
<path fill-rule="evenodd" clip-rule="evenodd" d="M9.79158 3.18745C8.54056 3.83913 7.51706 4.39058 7.51728 4.41301C7.51784 4.4709 10.5197 5.99118 10.6263 5.98748C10.6748 5.98586 11.0264 5.82401 11.4076 5.62786L12.1008 5.2713L12.8579 5.66046L13.615 6.0497L14.8549 5.49259C16.7231 4.65309 16.9171 4.5611 16.8867 4.53019C16.8463 4.48919 16.1762 4.12921 14.3582 3.1721C13.4796 2.70952 12.6269 2.25597 12.4632 2.16419C12.2995 2.07242 12.1432 1.99859 12.1159 2.00002C12.0886 2.00145 11.0426 2.5358 9.79158 3.18745ZM4.30464 6.02878L3.00235 6.70145V9.65371C3.00235 11.2775 3.01945 12.6059 3.04043 12.6059C3.06133 12.6059 3.70206 12.3282 4.46424 11.9887L5.85002 11.3715V8.25964L6.5272 8.62859C7.04903 8.91263 7.57117 9.19609 8.09363 9.47898L8.98285 9.96043L9.37853 9.7815C9.62669 9.66911 9.87434 9.55562 10.1215 9.44105C10.3125 9.35211 10.7813 9.14094 11.1633 8.97171C11.5453 8.8024 11.8989 8.63215 11.9491 8.59334C12.0157 8.5418 11.2035 8.09298 8.94499 6.93321C7.24258 6.05898 5.79508 5.34648 5.72833 5.3499C5.66158 5.35331 5.02092 5.65877 4.30464 6.02878ZM17.1214 6.21768C16.2344 6.61808 15.5081 6.96169 15.5073 6.98128C15.5065 7.00086 15.9899 7.28829 16.5816 7.61993C17.1733 7.95164 17.6574 8.24078 17.6574 8.26255C17.6574 8.28428 17.1338 8.53795 16.494 8.82638C15.8541 9.11474 14.2367 9.84516 12.8997 10.4496L8.41984 12.4745C7.29294 12.9839 6.27716 13.4431 6.16257 13.495C3.86081 14.537 3.22814 14.8261 3.14126 14.8758C3.05389 14.9257 3.0341 15.216 3.01855 16.673L3 18.4108L4.16457 19.0041L5.32911 19.5975L6.94393 18.8687C7.83211 18.4679 8.55875 18.119 8.55875 18.0933C8.55875 18.0677 8.39463 17.9607 8.19412 17.8556C7.99352 17.7504 7.57943 17.5176 7.27383 17.3381C6.96825 17.1586 6.66354 16.9939 6.59665 16.9721C6.52977 16.9503 6.47602 16.9122 6.47711 16.8873C6.47823 16.8625 7.18932 16.5248 8.05722 16.1367C9.74296 15.383 11.033 14.8021 13.8026 13.5496C15.0411 12.9897 16.2797 12.4301 17.5184 11.8708C18.6071 11.3794 19.873 10.8055 20.3314 10.5954L21.1648 10.2135L21.1834 8.45601L21.202 6.69855L20.0208 6.09228C19.3712 5.75888 18.8159 5.48689 18.7868 5.48789C18.7577 5.48881 18.0082 5.81718 17.1214 6.21768ZM20.8484 12.5582C20.6743 12.6432 20.3305 12.8024 20.0844 12.9119C19.8383 13.0214 19.3712 13.2321 19.0465 13.3803L18.4561 13.6496L18.4426 15.1925C18.4352 16.0411 18.4039 16.7317 18.3732 16.7272C18.3033 16.7168 17.1968 16.1493 16.0846 15.5534C15.2818 15.1233 15.2314 15.1062 15.0427 15.1996C14.9337 15.2536 14.2818 15.5459 13.5942 15.8493C12.9066 16.1526 12.3216 16.4206 12.2941 16.4449C12.2667 16.4691 13.6506 17.2192 15.3695 18.1118L18.4948 19.7347L19.8298 19.0441C20.564 18.6643 21.1884 18.3178 21.2171 18.2743C21.2819 18.1763 21.2763 12.3902 21.2115 12.398C21.1859 12.4011 21.0224 12.4732 20.8484 12.5582ZM13.4553 19.3497C13.2238 19.4492 12.9922 19.5489 12.7608 19.6488C12.0619 19.9511 12.1988 19.9612 11.3673 19.5472C10.8135 19.2715 10.5748 19.1865 10.4711 19.2278C10.3934 19.2587 9.72448 19.5597 8.98452 19.8965C8.2446 20.2334 7.61353 20.509 7.58214 20.509C7.2717 20.509 7.78781 20.8173 9.77937 21.8219L12.115 23L13.0977 22.5148C13.6382 22.248 14.7284 21.7136 15.5204 21.3274C16.3123 20.9411 16.9504 20.615 16.9385 20.6027C16.9265 20.5904 16.2629 20.2497 15.4638 19.8455L14.011 19.1106L13.4553 19.3497Z" fill="white"/>
</svg>
